<?xml version="1.0" encoding="utf-8"?>
<!-- Generator: Adobe Illustrator 27.5.0, SVG Export Plug-In . SVG Version: 6.00 Build 0)  -->
<svg version="1.1" xmlns="http://www.w3.org/2000/svg" xmlns:xlink="http://www.w3.org/1999/xlink" x="0px" y="0px"
	 viewBox="0 0 3710 3710" style="enable-background:new 0 0 3710 3710;" xml:space="preserve">
<g id="Illustration">
	<g>
		<linearGradient id="SVGID_1_" gradientUnits="userSpaceOnUse" x1="3591.7825" y1="4027.2969" x2="1116.5305" y2="953.1893">
			<stop  offset="0" style="stop-color:#B37CFF"/>
			<stop  offset="1" style="stop-color:#F895E7"/>
		</linearGradient>
		<path style="opacity:0.3;fill:url(#SVGID_1_);" d="M2918.467,2809.676c-57.275,59.566-111.467,97.979-154.284,128.328
			c-503.3,356.749-1098.836,252.759-1225.405,227.363c-186.902-37.501-548.179-109.99-809.375-413.431
			c-395.169-459.082-333.635-1182.353-27.116-1659.794c56.067-87.332,352.231-572.046,954.182-649.779
			c364.294-47.043,788.945,47.837,1096.465,302.357C3398.446,1278.981,3352.492,2358.282,2918.467,2809.676z"/>
		<g>
			<g>
				
					<linearGradient id="SVGID_00000041974295394093028930000012400922146184285602_" gradientUnits="userSpaceOnUse" x1="-3686.4319" y1="1557.6975" x2="-2422.8047" y2="1557.6975" gradientTransform="matrix(-0.9966 -0.0825 -0.0825 0.9966 -350.885 511.5666)">
					<stop  offset="0" style="stop-color:#B37CFF"/>
					<stop  offset="1" style="stop-color:#F895E7"/>
				</linearGradient>
				<path style="opacity:0.81;fill:url(#SVGID_00000041974295394093028930000012400922146184285602_);" d="M1867.179,3085.2
					c0,0,549.588-1388.39,1366.041-1540.059c14.488-2.692,27.686,8.89,26.976,23.61
					C3251.942,1740.009,3147.358,2646.371,1867.179,3085.2z"/>
				<path style="opacity:0.62;fill:#FFFFFF;" d="M3086.536,1770.338c-41.69,59.495-85.376,117.425-129.664,174.922
					c-11.056,14.383-22.359,28.573-33.527,42.87c-11.257,14.226-22.274,28.645-33.728,42.716l-34.235,42.309
					c-11.464,14.058-22.688,28.32-34.431,42.148c-23.327,27.792-46.433,55.773-69.944,83.41l-71.269,82.285
					c-48.354,54.113-96.673,108.274-146.508,161.044l-37.089,39.851c-12.216,13.425-25.169,26.144-37.715,39.253l-75.701,78.283
					l-77.653,76.363c-12.973,12.699-25.819,25.536-39.044,37.97l-40.056,36.903c-26.757,24.545-53.238,49.402-80.446,73.442
					l-82.724,70.882l-20.774,17.603c-6.982,5.8-13.769,11.833-20.911,17.439l-42.733,33.775
					c-14.203,11.308-28.608,22.359-42.902,33.542c-14.307,11.167-28.631,22.307-43.039,33.332c-1.104,0.844-2.682,0.634-3.526-0.469
					c-0.813-1.063-0.647-2.57,0.354-3.43l0.07-0.062c13.766-11.816,27.616-23.515,41.485-35.187
					c13.88-11.659,27.651-23.442,41.622-34.976l41.791-34.743c13.776-11.764,27.128-24.027,40.798-35.912l81.83-71.522
					l80.147-73.403l40.105-36.67c6.703-6.095,13.085-12.529,19.653-18.765l19.659-18.759l78.631-75.067
					c51.138-51.345,103.137-101.9,152.519-154.991c24.941-26.305,50.179-52.337,74.272-79.429
					c24.297-26.902,48.814-53.61,72.931-80.673l71.519-81.937c23.596-27.522,46.787-55.389,70.202-83.069
					c11.788-13.772,23.055-27.975,34.564-41.981l34.369-42.145c11.5-14.012,22.561-28.376,33.864-42.549
					c11.213-14.242,22.563-28.379,33.665-42.71c44.248-57.421,87.876-115.403,129.42-174.741l0.028-0.039
					c0.797-1.139,2.366-1.415,3.503-0.617C3087.056,1767.63,3087.333,1769.199,3086.536,1770.338z"/>
			</g>
			<g style="opacity:0.79;">
				
					<linearGradient id="SVGID_00000141436264386758959350000004064646097448059267_" gradientUnits="userSpaceOnUse" x1="-2214.041" y1="19.5425" x2="-1450.0782" y2="19.5425" gradientTransform="matrix(-0.9522 -0.3055 -0.3055 0.9522 671.3498 820.1615)">
					<stop  offset="0" style="stop-color:#A737D5"/>
					<stop  offset="1" style="stop-color:#EF497A"/>
				</linearGradient>
				<path style="fill:url(#SVGID_00000141436264386758959350000004064646097448059267_);" d="M1733.999,2288.94
					c0,0,267.175-1226.019,1073.722-1861.563c10.516-8.287,26.081-3.046,29.292,9.952
					C2887.748,642.626,3151.898,1952.063,1733.999,2288.94z"/>
				<path style="opacity:0.62;fill:#FFFFFF;" d="M2722.084,781.067c-9.263,35.564-20.038,70.603-31.408,105.484
					c-11.394,34.862-23.361,69.546-36.078,103.951c-25.51,68.788-53.29,136.739-83.231,203.737
					c-7.425,16.776-15.256,33.371-22.866,50.065c-7.657,16.674-15.928,33.06-23.863,49.602
					c-7.878,16.576-16.394,32.833-24.661,49.212l-12.505,24.522l-12.942,24.292c-34.476,64.793-70.798,128.651-109.938,190.779
					c-39.264,62.026-80.066,123.146-124.087,181.933c-5.45,7.385-10.796,14.849-16.332,22.169l-16.887,21.752l-16.888,21.752
					c-5.661,7.224-11.154,14.58-17.089,21.588l-35.073,42.467l-8.804,10.585l-9.122,10.313l-18.244,20.629
					c-96.802,110.447-205.153,210.712-322.306,298.974c-0.966,0.729-2.339,0.535-3.067-0.43c-0.71-0.942-0.544-2.271,0.361-3.013
					l0.049-0.04l42.535-34.691l21.298-17.288l20.613-18.105l41.178-36.234l39.81-37.73c6.588-6.335,13.376-12.46,19.867-18.893
					l19.279-19.497c12.788-13.06,25.844-25.855,38.409-39.125c24.7-26.948,49.981-53.357,73.495-81.359l17.928-20.734l8.963-10.366
					l8.646-10.635l34.681-42.454c5.881-6.995,11.322-14.34,16.93-21.552l16.73-21.713l16.73-21.713
					c5.483-7.306,10.778-14.757,16.175-22.129c43.603-58.675,83.999-119.68,122.862-181.575
					c39.068-61.79,75.581-125.191,110.139-189.627l12.986-24.151l12.55-24.381c8.298-16.29,16.846-32.456,24.756-48.94
					c16.232-32.767,31.899-65.811,47.325-98.969c30.614-66.431,59.06-133.87,85.321-202.159
					c13.324-34.071,25.906-68.433,37.922-102.99c6.027-17.275,11.83-34.625,17.442-52.035c5.697-17.373,11.143-34.868,16.176-52.399
					l0.011-0.043c0.334-1.162,1.548-1.835,2.71-1.5C2721.713,778.737,2722.382,779.922,2722.084,781.067z"/>
			</g>
		</g>
		<g style="opacity:0.76;">
			
				<linearGradient id="SVGID_00000077304863200571705170000007322866426422279569_" gradientUnits="userSpaceOnUse" x1="4515.416" y1="1747.7206" x2="5180.5762" y2="1747.7206" gradientTransform="matrix(0.9817 -0.1903 0.1903 0.9817 -4269.2617 590.2282)">
				<stop  offset="0" style="stop-color:#A737D5"/>
				<stop  offset="1" style="stop-color:#EF497A"/>
			</linearGradient>
			<path style="fill:url(#SVGID_00000077304863200571705170000007322866426422279569_);" d="M1314.853,2223.139
				c0,0-104.191-1087.586-735.764-1720.458c-8.234-8.252-22.233-5.33-26.354,5.575
				C487.641,680.498,123.848,1785.253,1314.853,2223.139z"/>
			<path style="opacity:0.62;fill:#FFFFFF;" d="M620.607,816.756c10.782,62.709,24.728,124.981,40.674,186.627
				c15.694,61.727,33.358,122.949,53.003,183.515c9.936,30.247,20.079,60.418,30.723,90.415
				c5.137,15.066,10.858,29.922,16.35,44.856l8.332,22.369l8.733,22.215c23.222,59.259,48.248,117.819,75.631,175.26
				c27.173,57.52,55.764,114.425,87.366,169.654c3.902,6.929,7.705,13.917,11.687,20.8l12.209,20.498l12.208,20.498
				c4.1,6.814,8.041,13.727,12.398,20.38l25.568,40.287l6.364,10.09l6.666,9.89l13.335,19.786
				c17.404,26.646,36.501,52.1,55.042,77.962c9.477,12.775,19.427,25.192,29.119,37.809l14.631,18.857
				c4.939,6.236,10.17,12.233,15.2,18.397l30.458,36.769l31.796,35.62l15.921,17.803l16.598,17.167l33.118,34.448l0.041,0.043
				c0.838,0.87,0.811,2.258-0.062,3.095c-0.849,0.817-2.188,0.811-3.031,0.007c-92.34-88.271-175.766-186.124-248.134-291.605
				l-13.66-19.717l-6.83-9.86l-6.528-10.057l-25.956-40.346c-4.41-6.673-8.401-13.602-12.552-20.436l-12.36-20.554l-12.361-20.557
				c-4.032-6.903-7.885-13.907-11.836-20.859c-32.004-55.386-60.985-112.459-88.54-170.156
				c-27.416-57.782-52.198-116.775-75.295-176.379l-8.674-22.349l-8.271-22.5c-5.451-15.023-11.13-29.968-16.223-45.116
				c-5.146-15.128-10.599-30.155-15.492-45.368c-4.841-15.23-9.884-30.391-14.556-45.673
				c-37.546-122.149-68.742-246.411-87.151-372.977c-0.174-1.198,0.656-2.311,1.852-2.485c1.177-0.171,2.272,0.63,2.473,1.795
				L620.607,816.756z"/>
		</g>
		<g>
			
				<linearGradient id="SVGID_00000122703862715463310850000016346440111169172413_" gradientUnits="userSpaceOnUse" x1="2328.6934" y1="422.2367" x2="-622.3833" y2="5776.3384">
				<stop  offset="0" style="stop-color:#2B3582"/>
				<stop  offset="1" style="stop-color:#150E42"/>
			</linearGradient>
			<path style="fill:url(#SVGID_00000122703862715463310850000016346440111169172413_);" d="M754.793,567.361
				c-9.044,426.792-38.375,1898.953-24.374,2420.642c1.484,55.267,39.356,99.627,86.599,101.436
				c233.657,8.945,1090.234,31.617,1472.418,12.86c79.603-3.907,142.907-79.338,144.558-172.525
				c7.943-447.972,25.464-1707.944-16.182-2285.139c-4.992-69.155-51.39-124.228-110.421-131.137
				c-254.464-29.78-1114.723-102.574-1444.909-77.507C802.934,440.511,756.272,497.573,754.793,567.361z"/>
			
				<linearGradient id="SVGID_00000150799136021614276090000009991801510656545428_" gradientUnits="userSpaceOnUse" x1="1725.3656" y1="743.7576" x2="1170.8138" y2="4242.4907">
				<stop  offset="0" style="stop-color:#53D8FF"/>
				<stop  offset="1" style="stop-color:#3840F7"/>
			</linearGradient>
			<path style="fill:url(#SVGID_00000150799136021614276090000009991801510656545428_);" d="M859.051,698.303
				c-12.577,344.484-52.248,1490.5-39.657,1914.271c1.841,61.941,43.57,112.024,96.458,115.646
				c217.758,14.907,960.692,47.777,1280.089,17.857c57.512-5.387,102.643-59.8,105.747-127.2
				c16.186-351.445,62.658-1418.546,50.59-1837.57c-1.927-66.845-46.188-121.437-103.132-127.417
				c-235.579-24.745-1025.031-83.621-1296.444-66.297C901.753,590.846,861.228,638.665,859.051,698.303z"/>
			
				<linearGradient id="SVGID_00000111191214664440415980000007789177963188318106_" gradientUnits="userSpaceOnUse" x1="1443.4028" y1="-1111.697" x2="1544.2448" y2="-83.1031">
				<stop  offset="0" style="stop-color:#53D8FF"/>
				<stop  offset="1" style="stop-color:#3840F7"/>
			</linearGradient>
			<path style="opacity:0.61;fill:url(#SVGID_00000111191214664440415980000007789177963188318106_);" d="M1443.165,520.648
				L1443.165,520.648c0,13.096,8.724,23.897,19.902,24.581c55.188,3.381,210.656,12.948,280.137,17.664
				c13.699,0.931,24.452-13.475,21.853-29.238l-0.443-2.69c-1.774-10.755-9.399-18.851-18.723-19.85
				c-46.966-5.035-188.681-18.995-282.576-15.074C1452.038,496.512,1443.165,507.445,1443.165,520.648z"/>
			<g>
				<g>
					
						<linearGradient id="SVGID_00000151528546803569139370000009630152466734543785_" gradientUnits="userSpaceOnUse" x1="1670.9363" y1="367.9105" x2="1427.4924" y2="1852.924">
						<stop  offset="0" style="stop-color:#53D8FF"/>
						<stop  offset="1" style="stop-color:#3840F7"/>
					</linearGradient>
					
						<circle style="fill:url(#SVGID_00000151528546803569139370000009630152466734543785_);" cx="1551.758" cy="1094.901" r="325.912"/>
					<path style="fill:#FFFFFF;" d="M1651.541,971.75c0,55.185-44.736,114.761-99.921,114.761
						c-55.185,0-99.922-59.576-99.922-114.761c0-55.185,44.736-94.336,99.922-94.336
						C1606.805,877.414,1651.541,916.565,1651.541,971.75z"/>
					<path style="fill:#FFFFFF;" d="M1427.617,1298.978h243.925c25.677,0,48.41-16.595,56.234-41.051l13.126-41.025
						c9.61-30.038-6.014-62.559-35.634-73.389c-99.269-36.295-201.916-31.639-307.066,3.349
						c-29.458,9.802-45.804,41.311-37.676,71.273l10.107,37.258C1377.612,1281.119,1400.962,1298.978,1427.617,1298.978z"/>
				</g>
				<g style="opacity:0.71;">
					<path style="opacity:0.65;fill:#FFFFFF;" d="M2176.682,1941.3H987.566c-3.728,0-6.75-3.022-6.75-6.75v-171.518
						c0-3.728,3.022-6.75,6.75-6.75h1189.115c3.728,0,6.75,3.022,6.75,6.75v171.518
						C2183.431,1938.278,2180.409,1941.3,2176.682,1941.3z"/>
					<path style="opacity:0.65;fill:#FFFFFF;" d="M2170.192,2243.171H981.076c-3.728,0-6.75-3.022-6.75-6.75v-171.518
						c0-3.728,3.022-6.75,6.75-6.75h1189.116c3.728,0,6.75,3.022,6.75,6.75v171.518
						C2176.942,2240.149,2173.92,2243.171,2170.192,2243.171z"/>
					<path style="opacity:0.65;fill:#FFFFFF;" d="M1937.915,2603.215h-760.234c-4.601,0-8.331-3.73-8.331-8.331v-219.219
						c0-4.601,3.73-8.331,8.331-8.331h760.234c4.601,0,8.332,3.73,8.332,8.331v219.219
						C1946.246,2599.485,1942.516,2603.215,1937.915,2603.215z"/>
				</g>
				<path style="opacity:0.75;fill:#FFFFFF;" d="M1738.394,1900.983h-692.304c-6.627,0-11.999-5.372-11.999-11.999v-78.794
					c0-6.627,5.372-11.999,11.999-11.999h692.304c6.627,0,11.999,5.372,11.999,11.999v78.794
					C1750.393,1895.61,1745.021,1900.983,1738.394,1900.983z"/>
				<g style="opacity:0.75;">
					
						<ellipse transform="matrix(0.9239 -0.3827 0.3827 0.9239 -740.4433 568.5673)" style="fill:#FFFFFF;" cx="1058.968" cy="2145.513" rx="42.199" ry="42.199"/>
					
						<ellipse transform="matrix(0.9239 -0.3827 0.3827 0.9239 -732.4586 613.0413)" style="fill:#FFFFFF;" cx="1174.754" cy="2147.679" rx="42.199" ry="42.199"/>
					
						<ellipse transform="matrix(0.9239 -0.3827 0.3827 0.9239 -726.0456 656.098)" style="fill:#FFFFFF;" cx="1286.19" cy="2153.087" rx="42.199" ry="42.199"/>
					
						<ellipse transform="matrix(0.7071 -0.7071 0.7071 0.7071 -1113.365 1622.6055)" style="fill:#FFFFFF;" cx="1401.976" cy="2155.253" rx="42.199" ry="42.199"/>
					
						<ellipse transform="matrix(0.2298 -0.9732 0.9732 0.2298 -927.5024 3136.3848)" style="fill:#FFFFFF;" cx="1517.744" cy="2154.167" rx="42.199" ry="42.199"/>
					
						<ellipse transform="matrix(0.1602 -0.9871 0.9871 0.1602 -756.622 3423.3638)" style="fill:#FFFFFF;" cx="1633.53" cy="2156.333" rx="42.199" ry="42.199"/>
				</g>
			</g>
		</g>
		<g>
			
				<linearGradient id="SVGID_00000044864535433012532340000011178672144530703513_" gradientUnits="userSpaceOnUse" x1="-5851.2183" y1="3150.636" x2="-5486.2354" y2="2211.0403" gradientTransform="matrix(-1 0 0 1 -3446.3174 0)">
				<stop  offset="0" style="stop-color:#F9B776"/>
				<stop  offset="1" style="stop-color:#F47960"/>
			</linearGradient>
			<path style="fill:url(#SVGID_00000044864535433012532340000011178672144530703513_);" d="M2115.415,2294.083l129.28,32.32
				l-32.319,242.401c0,0,48.48,48.479,64.64,113.119c16.16,64.641,31.059,336.054,31.059,336.054l30.676,18.545l3.731,15.481
				l-89.246,119.999l14.8-95.508c2.35-15.161-1.72-45.909-0.44-46.553c-48.479-129.281-152.181-493.458-152.181-493.458V2294.083z"
				/>
			
				<linearGradient id="SVGID_00000102537469710346690270000011013987773454920625_" gradientUnits="userSpaceOnUse" x1="-5856.7632" y1="6172.9048" x2="-4650.4414" y2="-7925.9873" gradientTransform="matrix(-1 0 0 1 -3446.3174 0)">
				<stop  offset="0" style="stop-color:#F9B776"/>
				<stop  offset="1" style="stop-color:#F47960"/>
			</linearGradient>
			<path style="fill:url(#SVGID_00000102537469710346690270000011013987773454920625_);" d="M2077.64,3053.666
				c1.399-0.024,2.775,0.087,4.181,0c-6.246-77.935-34.797-420.942-63.366-549.503c-32.32-145.44,48.479-436.321,48.479-436.321
				l145.441,145.44l-80.801,274.72c55.372,83.057-9.032,569.462-7.645,569.251l-0.088,1.081l21.084,28.989l-2.565,15.717
				l-128.795,76.002l50.677-82.296C2072.288,3083.684,2076.732,3068.875,2077.64,3053.666z"/>
			
				<linearGradient id="SVGID_00000133507685608295088330000018433592036822675628_" gradientUnits="userSpaceOnUse" x1="-5813.4014" y1="1664.2015" x2="-5658.6934" y2="1664.2015" gradientTransform="matrix(-1 0 0 1 -3446.3174 0)">
				<stop  offset="0" style="stop-color:#F9B776"/>
				<stop  offset="1" style="stop-color:#F47960"/>
			</linearGradient>
			<path style="fill:url(#SVGID_00000133507685608295088330000018433592036822675628_);" d="M2241.229,1422.806
				c0,0,283.174,319.152,0,482.791l-28.853-20.891c0,0,140.587-134.624,0-299.422L2241.229,1422.806z"/>
			
				<linearGradient id="SVGID_00000088856020394684816900000012232956036265763004_" gradientUnits="userSpaceOnUse" x1="-5310.564" y1="3177.2832" x2="-4942.542" y2="2612.646" gradientTransform="matrix(-1 0 0 1 -3211.1565 0)">
				<stop  offset="0" style="stop-color:#CB236D"/>
				<stop  offset="1" style="stop-color:#4C246D"/>
			</linearGradient>
			<path style="fill:url(#SVGID_00000088856020394684816900000012232956036265763004_);" d="M2005.083,3190.965h41.103
				c7.693,0,14.948-3.531,19.641-9.629c12.813-16.649,39.36-49.132,52.054-49.979c17.089-1.143,14.903,59.607,14.903,59.607h9.578
				l12.134-75.489c3.052-18.994-6.394-37.81-23.45-46.708l0,0c0,0-3.906,28.888-25.086,41.666
				c-21.18,12.779-86.191,58.54-86.191,58.54s-7.963-1.136-16.705,0.444C1990.094,3171.76,1991.905,3190.965,2005.083,3190.965z"/>
			
				<linearGradient id="SVGID_00000054262454264555705540000001389370902673077685_" gradientUnits="userSpaceOnUse" x1="-5642.1572" y1="3349.2356" x2="-5233.8047" y2="2643.4392" gradientTransform="matrix(-1 0 0 1 -3211.1565 0)">
				<stop  offset="0" style="stop-color:#CB236D"/>
				<stop  offset="1" style="stop-color:#4C246D"/>
			</linearGradient>
			<path style="fill:url(#SVGID_00000054262454264555705540000001389370902673077685_);" d="M2250.041,3186.281l37.885-15.938
				c7.09-2.983,12.409-9.053,14.371-16.492c5.355-20.315,17.228-60.551,28.6-66.255c15.308-7.679,36.851,49.166,36.851,49.166
				l8.829-3.715l-18.089-74.287c-4.551-18.692-20.555-32.372-39.725-33.961l0,0c0,0,7.6,28.142-6.968,48.134
				c-14.568,19.991-56.748,87.382-56.748,87.382s-7.779,2.041-15.225,6.888C2228.777,3174.391,2237.893,3191.391,2250.041,3186.281z
				"/>
			
				<linearGradient id="SVGID_00000134932312198734722480000005080066324437713323_" gradientUnits="userSpaceOnUse" x1="3144.5537" y1="1893.0038" x2="2630.2534" y2="2891.3528" gradientTransform="matrix(1 0 0 1 -893.1003 0)">
				<stop  offset="0" style="stop-color:#CB236D"/>
				<stop  offset="1" style="stop-color:#4C246D"/>
			</linearGradient>
			<path style="fill:url(#SVGID_00000134932312198734722480000005080066324437713323_);" d="M2029.896,1821.921
				c0,0,4.753,29.13-2.209,109.208c-6.965,80.079-40.25,268.088-33.472,447.974c0,0,94.624,22.051,259.021,11.606
				c0,0,69.38-280.855,52.477-387.626c-16.901-106.77-108.584-183.368-108.584-183.368L2029.896,1821.921z"/>
			
				<linearGradient id="SVGID_00000119113379378956373480000002855274251079658382_" gradientUnits="userSpaceOnUse" x1="-5644.4438" y1="1319.016" x2="-5534.5664" y2="1319.016" gradientTransform="matrix(-1 0 0 1 -3446.3174 0)">
				<stop  offset="0" style="stop-color:#F9B776"/>
				<stop  offset="1" style="stop-color:#F47960"/>
			</linearGradient>
			<polygon style="fill:url(#SVGID_00000119113379378956373480000002855274251079658382_);" points="2099.815,1286.816 
				2088.249,1422.806 2198.127,1422.806 2170.806,1215.226 			"/>
			
				<linearGradient id="SVGID_00000003074314734419673070000017988926903114039426_" gradientUnits="userSpaceOnUse" x1="-5446.4819" y1="1438.0634" x2="-6028.3281" y2="2184.5098" gradientTransform="matrix(-1 0 0 1 -3446.3174 0)">
				<stop  offset="0" style="stop-color:#FDF53F"/>
				<stop  offset="1" style="stop-color:#D93C65"/>
			</linearGradient>
			<path style="fill:url(#SVGID_00000003074314734419673070000017988926903114039426_);" d="M2230.677,1404.002
				c-37.921-2.091-122.704-5.961-182.768-2.688c-31.624,1.723-58.114,24.411-64.584,55.415l-14.649,70.205
				c-5.458,26.149-4.641,53.219,2.38,78.992l58.841,215.996c0,0,52.336,31.451,167.232-2.205c0,0,100.9-240.614,59.599-394.535
				C2253.518,1413.227,2243.035,1404.684,2230.677,1404.002z"/>
			
				<linearGradient id="SVGID_00000005959813633695538990000010601476927842951605_" gradientUnits="userSpaceOnUse" x1="-4999.7769" y1="1381.6602" x2="-5950.0825" y2="1926.0726" gradientTransform="matrix(-1 0 0 1 -3446.3174 0)">
				<stop  offset="0" style="stop-color:#F9B776"/>
				<stop  offset="1" style="stop-color:#F47960"/>
			</linearGradient>
			<path style="fill:url(#SVGID_00000005959813633695538990000010601476927842951605_);" d="M1986.196,1444.135
				c-16.185,42.634-30.803,87.339-46.507,129.208c-7.986,20.955-16.085,41.498-24.751,60.363
				c-4.382,9.395-9.197,18.029-13.616,25.857c-4.423,7.75-9.405,14.196-11.999,17.163c-0.509,0.44,1.196,0.776,1.766,0.803
				c0.344,0.042-10.941,1.851-14.404,2.431l-13.526-0.081c-19.387-0.997-41.345-4.415-63.37-8.695
				c-44.425-8.282-90.613-19.913-138.039-28.711l-0.364-0.067c-9.075-1.683-17.796,4.308-19.479,13.384
				c-1.111,5.984,1.14,11.831,5.389,15.592c19.123,16.833,39.393,30.661,60.418,44.121c10.583,6.471,21.351,12.815,32.297,18.905
				c11.161,5.688,22.352,11.423,33.978,16.726c23.405,10.198,47.584,19.592,75.437,25.627c7.321,1.225,14.545,2.509,22.077,3.519
				c8.447,0.293,16.119,1.042,25.344,0.507c4.9-0.486,9.824-1.087,14.733-1.801c2.617-0.461,4.542-0.511,7.714-1.385
				c3.366-1.01,6.724-2.141,10.033-3.383c6.917-2.483,11.388-5.487,17.007-8.613c4.665-3.076,8.92-6.292,13.045-9.59
				c15.228-12.971,24.683-25.844,33.018-38.203c8.31-12.349,14.897-24.72,20.811-36.846c11.862-24.219,21.124-48.216,28.64-72.38
				c15.229-48.423,25.549-96.014,29.904-146.565c2.085-24.214-15.853-45.533-40.067-47.618c-20.04-1.727-38.099,10.264-44.91,28.177
				L1986.196,1444.135z"/>
			
				<linearGradient id="SVGID_00000083797769190684833670000015608194282985211779_" gradientUnits="userSpaceOnUse" x1="-4905.3525" y1="1546.4838" x2="-5855.6567" y2="2090.8955" gradientTransform="matrix(-1 0 0 1 -3446.3174 0)">
				<stop  offset="0" style="stop-color:#F9B776"/>
				<stop  offset="1" style="stop-color:#F47960"/>
			</linearGradient>
			<path style="fill:url(#SVGID_00000083797769190684833670000015608194282985211779_);" d="M1676.68,1664.202l-19.607-46.543
				l-103.199-25.714c0,0-8.256,17.888,35.088,25.714c0,0-15.481,17.112-7.224,37.236
				C1589.994,1675.018,1677.712,1695.179,1676.68,1664.202z"/>
			
				<linearGradient id="SVGID_00000047029326518991668720000015453649738231178929_" gradientUnits="userSpaceOnUse" x1="-5461.4365" y1="1318.9719" x2="-5674.9575" y2="1006.748" gradientTransform="matrix(-1 0 0 1 -3446.3174 0)">
				<stop  offset="0" style="stop-color:#F9B776"/>
				<stop  offset="1" style="stop-color:#F47960"/>
			</linearGradient>
			<path style="fill:url(#SVGID_00000047029326518991668720000015453649738231178929_);" d="M2053.292,1129.762
				c-3.923,2.314-34.836,111.342-8.931,157.053c25.904,45.713,105.009-5.488,126.445-71.589
				C2192.244,1149.125,2157.802,1068.128,2053.292,1129.762z"/>
			
				<linearGradient id="SVGID_00000139997368691438224220000002274463879024923575_" gradientUnits="userSpaceOnUse" x1="-5339.3691" y1="1095.8981" x2="-5641.8535" y2="1489.1274" gradientTransform="matrix(-1 0 0 1 -3211.1565 0)">
				<stop  offset="0" style="stop-color:#2B3582"/>
				<stop  offset="1" style="stop-color:#150E42"/>
			</linearGradient>
			<path style="fill:url(#SVGID_00000139997368691438224220000002274463879024923575_);" d="M2258.315,1215.226
				c17.743,86.932,76.532,63.141,118.172,101.817c67.487,62.684,164.027-1.934,257.883,57.468
				c67.756,42.884,100.401,152.597,67.887,241.177c-45.036,122.685-198.937,173.14-278.692,135.773
				c-76.224-35.713-65.37-142.672-167.929-184.008c-43.541-17.549-65.035-6.146-91.112-32.156
				c-45.647-45.532-33.329-133.891-28.584-167.93c10.297-73.862,35.061-87.234,23.225-119.695
				c-23.02-63.138-130.397-50.111-139.346-94.684c-8.148-40.59,69.679-117.527,142.92-105.402
				C2276.058,1066.342,2250.41,1176.496,2258.315,1215.226z"/>
			<path style="opacity:0.6;fill:#FFFFFF;" d="M2668.415,1594.909c1.344,0,2.555-0.909,2.885-2.271
				c14.508-60.231,7.927-109.628-19.574-146.821c-45.635-61.726-134.327-67.833-135.219-67.886c-1.395-0.231-3.036,1.142-3.14,2.783
				c-0.098,1.633,1.142,3.042,2.781,3.139c0.864,0.053,86.874,6.021,130.834,65.527c26.387,35.71,32.628,83.443,18.547,141.867
				c-0.382,1.592,0.597,3.198,2.191,3.581C2667.951,1594.88,2668.189,1594.909,2668.415,1594.909z"/>
			<path style="opacity:0.72;fill:#FFFFFF;" d="M2377.927,1650.047c0.122,0,0.25-0.018,0.376-0.047
				c0.788-0.209,1.263-1.019,1.06-1.814c-14.132-54.222-38.931-91.879-73.698-111.932c-25.292-14.59-48.977-15.946-69.871-17.144
				c-20.148-1.16-37.547-2.162-51.552-14.614c-28.948-25.743-27.273-87.637,4.983-183.966c0.261-0.777-0.162-1.616-0.938-1.877
				c-0.783-0.261-1.617,0.162-1.878,0.939c-32.668,97.557-34.058,160.512-4.137,187.118c14.775,13.142,32.65,14.173,53.354,15.361
				c20.564,1.182,43.875,2.52,68.558,16.757c34.053,19.636,58.383,56.685,72.305,110.114
				C2376.664,1649.607,2377.267,1650.047,2377.927,1650.047z"/>
			<path style="opacity:0.72;fill:#FFFFFF;" d="M2216.337,1193.652c0.157,0,0.312-0.022,0.476-0.075
				c0.776-0.26,1.193-1.107,0.933-1.883c-11.234-33.422-43.602-28.455-77.898-23.183c-21.706,3.338-44.146,6.774-63.18,1.142
				c-14.203-4.212-22.638-10.736-25.079-19.399c-4.166-14.746,10.424-31.191,10.568-31.359c0.551-0.608,0.499-1.547-0.109-2.092
				c-0.603-0.55-1.547-0.498-2.091,0.11c-0.649,0.719-15.825,17.806-11.229,34.141c2.734,9.705,11.85,16.919,27.093,21.438
				c19.684,5.829,42.449,2.335,64.479-1.048c34.424-5.285,64.189-9.868,74.63,21.201
				C2215.138,1193.265,2215.718,1193.652,2216.337,1193.652z"/>
		</g>
		<g>
			<g>
				
					<linearGradient id="SVGID_00000165951613623833522540000005911470949220205460_" gradientUnits="userSpaceOnUse" x1="3060.1074" y1="-34.5011" x2="2634.0984" y2="1538.4519">
					<stop  offset="0" style="stop-color:#FDF53F"/>
					<stop  offset="1" style="stop-color:#D93C65"/>
				</linearGradient>
				<path style="fill:url(#SVGID_00000165951613623833522540000005911470949220205460_);" d="M2543.386,856.038
					c0-152.995,129.599-277.006,285.124-276.986c150.927,0.018,270.04,117.499,270.04,262.401
					c0,144.902-119.114,268.641-270.04,276.59C2672.985,1126.234,2543.386,1009.032,2543.386,856.038z"/>
			</g>
			<g>
				
					<linearGradient id="SVGID_00000116194830388942239060000001359061590479856826_" gradientUnits="userSpaceOnUse" x1="2945.9822" y1="554.3499" x2="2427.1006" y2="1775.0879">
					<stop  offset="0" style="stop-color:#FDF53F"/>
					<stop  offset="1" style="stop-color:#D93C65"/>
				</linearGradient>
				<path style="fill:url(#SVGID_00000116194830388942239060000001359061590479856826_);" d="M2569.4,855.354
					c0-138.657,117.453-251.045,258.403-251.028c136.782,0.018,244.733,106.488,244.733,237.809
					c0,131.322-107.951,243.465-244.733,250.669C2686.854,1100.228,2569.4,994.011,2569.4,855.354z"/>
			</g>
			<g>
				<path style="fill:#FFFFFF;" d="M2744.086,839.631h-23.158v-92.285c0-36.247,27.134-66.878,63.116-71.251l47.349-5.754
					c20.379-2.477,40.883,3.91,56.251,17.524s24.182,33.196,24.182,53.727v80.566h-23.158v-80.566
					c0-13.907-5.97-27.171-16.38-36.392c-10.41-9.221-24.3-13.548-38.103-11.87l-47.349,5.754
					c-24.373,2.962-42.752,23.71-42.752,48.262V839.631z"/>
				<path style="fill:#FFFFFF;" d="M2714.082,818.912l202.999-11.247c8.245-0.457,15.181,6.106,15.181,14.363v160.818
					c0,7.945-6.44,14.385-14.385,14.385h-198.121c-7.762,0-14.125-6.158-14.378-13.916l-4.877-149.571
					C2700.246,825.93,2706.277,819.344,2714.082,818.912z"/>
				
					<linearGradient id="SVGID_00000013183369855535661400000002791637860704209082_" gradientUnits="userSpaceOnUse" x1="2896.103" y1="143.3593" x2="2775.9397" y2="1309.4797">
					<stop  offset="0" style="stop-color:#FDF53F"/>
					<stop  offset="1" style="stop-color:#D93C65"/>
				</linearGradient>
				<path style="fill:url(#SVGID_00000013183369855535661400000002791637860704209082_);" d="M2849.471,951.162l-12.286-35.324
					c-1.477-4.247-0.471-8.995,2.688-12.196c6.296-6.38,10.048-15.276,9.604-25.047c-0.784-17.231-14.86-31.202-32.096-31.864
					c-19.074-0.733-34.769,14.513-34.769,33.425c0,10.491,4.832,19.851,12.391,25.982c3.92,3.18,5.532,8.406,3.873,13.174
					l-11.078,31.85c-2.694,7.746,3.057,15.835,11.258,15.835h39.157C2846.414,966.997,2852.166,958.908,2849.471,951.162z"/>
			</g>
		</g>
		<g>
			<g>
				<g style="opacity:0.3;">
					
						<linearGradient id="SVGID_00000106114343377225196070000005194517692951846272_" gradientUnits="userSpaceOnUse" x1="904.4715" y1="9904.5869" x2="1543.1876" y2="9904.5869" gradientTransform="matrix(-0.4445 -0.8958 0.8958 -0.4445 -7542.5566 8227.3662)">
						<stop  offset="0" style="stop-color:#B37CFF"/>
						<stop  offset="1" style="stop-color:#F895E7"/>
					</linearGradient>
					<path style="fill:url(#SVGID_00000106114343377225196070000005194517692951846272_);" d="M1139.38,2893.394
						c2.451,5.178,0.835,11.561-3.909,14.715c-10.373,6.9-21.188,13.427-32.141,19.402c-5.329,2.907-11.903,0.722-14.683-4.881
						c-0.032-0.068-0.063-0.134-0.095-0.2c-2.635-5.566-0.557-12.337,4.709-15.209c10.407-5.676,20.679-11.877,30.533-18.431
						c5.071-3.374,11.798-1.785,15.022,3.552C1139.026,2892.685,1139.212,2893.037,1139.38,2893.394z M1054.202,2936.885
						c0.189,0.4,0.359,0.818,0.507,1.25c2.028,5.947-0.915,12.484-6.572,14.6c-11.621,4.343-23.535,8.207-35.41,11.483
						c-5.81,1.603-11.744-2.029-13.31-8.151c-1.539-6.106,1.925-12.354,7.73-13.956c11.287-3.115,22.605-6.786,33.649-10.916
						C1046.043,2929.234,1051.779,2931.765,1054.202,2936.885z M961.981,2959.573c0.54,1.14,0.906,2.396,1.06,3.732
						c0.714,6.268-3.539,11.95-9.506,12.688c-12.23,1.515-24.678,2.489-36.996,2.893c-6.007,0.193-11.034-4.764-11.242-11.066
						c-0.202-6.308,4.505-11.584,10.51-11.781c11.698-0.384,23.515-1.308,35.131-2.746
						C955.631,2952.711,959.988,2955.363,961.981,2959.573z M867.175,2960.021c0.892,1.885,1.3,4.049,1.073,6.294
						c-0.634,6.275-5.995,10.809-11.97,10.127c-12.259-1.402-24.607-3.375-36.704-5.866c-5.894-1.22-9.75-7.223-8.613-13.417
						c1.143-6.192,6.853-10.228,12.754-9.014c11.487,2.367,23.216,4.243,34.866,5.571
						C862.417,2954.156,865.574,2956.637,867.175,2960.021z M774.606,2938.252c1.251,2.643,1.534,5.787,0.553,8.794
						c-1.945,5.969-8.133,9.138-13.817,7.079c-11.634-4.21-23.264-9.004-34.558-14.249c-5.504-2.55-8.006-9.299-5.585-15.074
						c2.419-5.771,8.838-8.381,14.342-5.828c10.735,4.987,21.788,9.542,32.845,13.543
						C771.208,2933.538,773.375,2935.652,774.606,2938.252z M688.884,2895.533c1.62,3.424,1.575,7.616-0.474,11.101
						c-3.156,5.365-9.858,7.016-14.974,3.692c-10.482-6.817-20.821-14.192-30.72-21.92c-4.831-3.772-5.843-10.931-2.264-15.994
						c3.575-5.061,10.391-6.109,15.22-2.34c9.408,7.343,19.227,14.35,29.188,20.827
						C686.654,2892.064,688.01,2893.687,688.884,2895.533z M488.016,2532.23c0.671,1.418,1.071,3.003,1.128,4.687
						c0.412,12.272,1.34,24.693,2.762,36.914c0.728,6.266-3.517,11.956-9.48,12.704c-5.965,0.752-11.392-3.72-12.121-9.988
						c-1.497-12.87-2.477-25.952-2.912-38.875c-0.212-6.31,4.486-11.592,10.492-11.799
						C482.288,2525.718,486.173,2528.337,488.016,2532.23z M614.311,2833.986c2.011,4.25,1.357,9.54-1.985,13.101
						c-4.215,4.492-11.104,4.535-15.389,0.1c-8.784-9.091-17.299-18.694-25.309-28.542c-3.886-4.823-3.379-12.018,1.189-16.113
						c4.565-4.093,11.435-3.515,15.345,1.29c7.605,9.354,15.691,18.472,24.031,27.105
						C613.079,2831.844,613.787,2832.88,614.311,2833.986z M502.023,2630.733c0.32,0.676,0.584,1.394,0.777,2.152
						c3.019,11.878,6.569,23.777,10.543,35.369c2.036,5.945-0.895,12.486-6.547,14.612c-5.653,2.123-11.913-0.953-13.928-6.912
						c-4.18-12.197-7.915-24.718-11.095-37.216c-1.551-6.102,1.898-12.36,7.703-13.974
						C494.559,2623.348,499.765,2625.963,502.023,2630.733z M554.657,2756.519c2.447,5.17,0.84,11.544-3.891,14.703
						c-5.066,3.384-11.793,1.807-15.031-3.52c-6.62-10.91-12.882-22.267-18.605-33.756c-0.038-0.07-0.073-0.144-0.107-0.216
						c-2.631-5.558-0.562-12.319,4.69-15.199c5.325-2.917,11.901-0.746,14.69,4.854c5.44,10.912,11.389,21.697,17.68,32.063
						C554.292,2755.799,554.486,2756.157,554.657,2756.519z"/>
					
						<linearGradient id="SVGID_00000062880345216538234180000005269793690989647259_" gradientUnits="userSpaceOnUse" x1="1575.1453" y1="9748.3164" x2="1613.0829" y2="9748.3164" gradientTransform="matrix(-0.4445 -0.8958 0.8958 -0.4445 -7542.5566 8227.3662)">
						<stop  offset="0" style="stop-color:#B37CFF"/>
						<stop  offset="1" style="stop-color:#F895E7"/>
					</linearGradient>
					<path style="fill:url(#SVGID_00000062880345216538234180000005269793690989647259_);" d="M492.238,2452.11
						c0.955,2.017,1.357,4.349,1.021,6.745c-0.817,5.828-1.528,11.771-2.124,17.666c-0.63,6.274-5.988,10.814-11.962,10.135
						c-5.977-0.675-10.319-6.313-9.678-12.591c0.622-6.201,1.372-12.45,2.23-18.584c0.873-6.241,6.403-10.55,12.345-9.617
						C487.737,2446.438,490.704,2448.869,492.238,2452.11z"/>
				</g>
				<g style="opacity:0.3;">
					
						<linearGradient id="SVGID_00000157995750420010119710000006540147165059061917_" gradientUnits="userSpaceOnUse" x1="1776.3445" y1="10031.3047" x2="1802.5818" y2="10031.3047" gradientTransform="matrix(-0.4445 -0.8958 0.8958 -0.4445 -7542.5566 8227.3662)">
						<stop  offset="0" style="stop-color:#B37CFF"/>
						<stop  offset="1" style="stop-color:#F895E7"/>
					</linearGradient>
					<path style="fill:url(#SVGID_00000157995750420010119710000006540147165059061917_);" d="M664.792,2154.942
						c2.34,4.944,0.99,11.07-3.418,14.37c-4.564,3.414-9.137,6.988-13.587,10.619c-4.742,3.868-11.579,2.96-15.272-2.028
						c-3.709-5.01-2.844-12.17,1.895-16.036c4.687-3.823,9.502-7.587,14.307-11.183c4.889-3.658,11.685-2.454,15.182,2.688
						C664.24,2153.878,664.537,2154.405,664.792,2154.942z"/>
					
						<linearGradient id="SVGID_00000023995261571694860430000000365290537460718259_" gradientUnits="userSpaceOnUse" x1="1150.9591" y1="10312.8711" x2="1809.4862" y2="10312.8711" gradientTransform="matrix(-0.4445 -0.8958 0.8958 -0.4445 -7542.5566 8227.3662)">
						<stop  offset="0" style="stop-color:#B37CFF"/>
						<stop  offset="1" style="stop-color:#F895E7"/>
					</linearGradient>
					<path style="fill:url(#SVGID_00000023995261571694860430000000365290537460718259_);" d="M1290.764,2319.669
						c2.231,4.713,4.394,9.485,6.49,14.312c2.494,5.749,0.085,12.523-5.382,15.13c-5.467,2.607-11.954,0.043-14.42-5.686
						c-4.836-11.14-10.091-22.05-15.685-32.546c-2.932-5.524-1.072-12.473,4.17-15.547c5.245-3.075,11.878-1.096,14.815,4.418
						C1284.213,2306.242,1287.581,2312.945,1290.764,2319.669z M1317.479,2390.508c0.271,0.572,0.5,1.178,0.682,1.812
						c3.502,12.218,6.55,24.728,9.057,37.179c1.245,6.177-2.513,12.234-8.389,13.526c-5.881,1.292-11.674-2.673-12.899-8.848
						c-2.382-11.826-5.28-23.708-8.604-35.321c-1.734-6.047,1.527-12.414,7.278-14.219
						C1309.757,2383.021,1315.16,2385.608,1317.479,2390.508z M1249.357,2249.372c2.286,4.83,1.06,10.826-3.178,14.185
						c-4.794,3.798-11.618,2.788-15.247-2.253c-6.937-9.646-14.362-19.111-22.075-28.133c-4.012-4.71-3.655-11.93,0.812-16.139
						c4.471-4.21,11.351-3.811,15.37,0.893c8.121,9.501,15.941,19.471,23.248,29.628
						C1248.704,2248.133,1249.059,2248.744,1249.357,2249.372z M1334.386,2486.931c0.615,1.301,1,2.746,1.106,4.281
						c0.861,12.71,1.215,25.611,1.052,38.342c-0.081,6.311-5.016,11.344-11.025,11.244c-6.012-0.099-10.818-5.291-10.734-11.607
						c0.154-12.088-0.182-24.338-1.001-36.409c-0.429-6.296,4.088-11.753,10.081-12.186
						C1328.396,2480.268,1332.48,2482.904,1334.386,2486.931z M1185.203,2178.16c1.875,3.961,1.462,8.879-1.426,12.466
						c-3.876,4.814-10.743,5.407-15.336,1.324c-8.779-7.807-18.002-15.329-27.41-22.361c-4.902-3.663-6.06-10.8-2.58-15.942
						c3.477-5.138,10.266-6.333,15.168-2.67c9.906,7.401,19.615,15.32,28.86,23.541
						C1183.649,2175.558,1184.562,2176.804,1185.203,2178.16z M1107.757,2123.418c1.499,3.167,1.585,7.015-0.088,10.384
						c-2.78,5.59-9.352,7.745-14.681,4.813c-10.22-5.621-20.784-10.857-31.396-15.562c-5.545-2.448-8.153-9.15-5.826-14.974
						c2.327-5.815,8.702-8.536,14.246-6.082c11.169,4.951,22.284,10.46,33.038,16.378
						C1105.167,2119.538,1106.769,2121.33,1107.757,2123.418z M1020.832,2087.684c1.14,2.409,1.481,5.243,0.768,8.043
						c-1.55,6.093-7.516,9.7-13.322,8.055c-11.145-3.158-22.534-5.857-33.858-8.02c-5.913-1.13-9.85-7.073-8.786-13.292
						c1.064-6.209,6.717-10.326,12.634-9.196c11.915,2.279,23.905,5.117,35.63,8.439
						C1017.038,2082.604,1019.489,2084.847,1020.832,2087.684z M928.607,2072.693c0.79,1.669,1.202,3.561,1.125,5.554
						c-0.244,6.306-5.31,11.195-11.314,10.923c-11.521-0.524-23.188-0.536-34.683-0.035c-6.004,0.26-11.087-4.647-11.35-10.943
						c-0.264-6.308,4.391-11.633,10.395-11.893c12.109-0.528,24.397-0.515,36.523,0.035
						C923.414,2066.521,926.896,2069.078,928.607,2072.693z M835.511,2079.328c0.444,0.938,0.77,1.958,0.959,3.039
						c1.085,6.21-2.828,12.158-8.738,13.28c-11.311,2.152-22.683,4.839-33.805,7.992c-5.8,1.644-11.781-1.985-13.357-8.059
						c-1.58-6.094,1.843-12.368,7.643-14.012c11.708-3.318,23.68-6.148,35.588-8.412
						C828.683,2072.228,833.405,2074.878,835.511,2079.328z M746.186,2107.266c0.099,0.21,0.192,0.426,0.281,0.644
						c2.345,5.816-0.239,12.519-5.772,14.967c-7.811,3.457-15.61,7.208-23.19,11.152c-2.744,1.427-5.467,2.887-8.166,4.368
						c-5.323,2.921-11.902,0.754-14.693-4.843c-2.934-5.607-0.746-12.498,4.572-15.419c2.842-1.561,5.702-3.092,8.591-4.594
						c7.972-4.147,16.181-8.095,24.396-11.73C737.528,2099.453,743.644,2101.894,746.186,2107.266z"/>
					
						<linearGradient id="SVGID_00000052784129531622954890000011839079368590861234_" gradientUnits="userSpaceOnUse" x1="1083.8212" y1="10439.8711" x2="1121.2898" y2="10439.8711" gradientTransform="matrix(-0.4445 -0.8958 0.8958 -0.4445 -7542.5566 8227.3662)">
						<stop  offset="0" style="stop-color:#B37CFF"/>
						<stop  offset="1" style="stop-color:#F895E7"/>
					</linearGradient>
					<path style="fill:url(#SVGID_00000052784129531622954890000011839079368590861234_);" d="M1330.624,2585.116
						c0.964,2.037,1.362,4.39,1.015,6.803c-0.885,6.115-1.91,12.326-3.047,18.46c-1.147,6.194-6.859,10.226-12.757,9.006
						c-5.899-1.222-9.755-7.223-8.605-13.421c1.079-5.827,2.052-11.727,2.893-17.532c0.9-6.235,6.448-10.513,12.39-9.551
						C1326.155,2579.472,1329.099,2581.895,1330.624,2585.116z"/>
				</g>
				<g>
					
						<linearGradient id="SVGID_00000074435671288614927250000010675455576011615634_" gradientUnits="userSpaceOnUse" x1="979.7903" y1="2227.1672" x2="742.8443" y2="3094.2891">
						<stop  offset="0" style="stop-color:#FDF53F"/>
						<stop  offset="1" style="stop-color:#D93C65"/>
					</linearGradient>
					<path style="fill:url(#SVGID_00000074435671288614927250000010675455576011615634_);" d="M1211.089,2630.078
						c0.893-2.074,0.435-4.519-1.143-6.087l-45.013-44.74c5.585-29.775,6.689-60.711,2.809-91.699l47.593-41.384
						c1.67-1.452,2.275-3.858,1.51-5.992l-26.216-73.025c-0.767-2.134-2.737-3.525-4.904-3.466l-61.834,1.717
						c-16.576-25.987-36.866-48.497-59.798-67.039l5.715-64.721c0.2-2.268-0.992-4.424-2.969-5.368l-67.657-32.29
						c-1.978-0.944-4.305-0.467-5.793,1.186l-42.49,47.17c-28.362-5.938-57.821-7.17-87.315-3.169l-39.517-50.087
						c-1.386-1.757-3.678-2.399-5.708-1.6l-69.466,27.361c-2.03,0.799-3.35,2.865-3.287,5.143l1.782,64.949
						c-24.704,17.347-46.087,38.603-63.686,62.645l-61.637-6.158c-2.159-0.215-4.209,1.032-5.103,3.105l-30.581,70.984
						c-0.895,2.074-0.435,4.519,1.143,6.087l45.013,44.74c-5.587,29.775-6.689,60.712-2.809,91.699l-47.594,41.385
						c-1.669,1.451-2.275,3.857-1.51,5.991l26.218,73.026c0.766,2.135,2.735,3.526,4.905,3.465l61.834-1.717
						c16.575,25.988,36.866,48.498,59.798,67.04l-5.715,64.72c-0.201,2.269,0.992,4.425,2.969,5.368l67.658,32.289
						c1.977,0.944,4.303,0.467,5.793-1.186l42.49-47.169c28.362,5.938,57.821,7.17,87.315,3.169l39.516,50.087
						c1.385,1.756,3.678,2.399,5.708,1.599l69.465-27.36c2.03-0.8,3.351-2.865,3.289-5.143l-1.783-64.948
						c24.703-17.347,46.086-38.604,63.686-62.645l61.635,6.157c2.161,0.216,4.21-1.031,5.104-3.105L1211.089,2630.078z"/>
					<path style="opacity:0.56;fill:#FFFFFF;" d="M965.576,2489.079c16.211,34.248,6.529,76.763-24.198,99.154
						c-33.777,24.612-80.38,15.725-103.894-19.806c-11.396-17.212-15.729-38.039-12.214-58.636
						c3.513-20.601,14.459-38.513,30.822-50.434c33.777-24.612,80.38-15.725,103.894,19.805
						C962.105,2482.367,963.969,2485.684,965.576,2489.079z M847.445,2550.338c1.252,2.645,2.693,5.209,4.328,7.68
						c18.026,27.242,53.763,34.053,79.656,15.186c25.895-18.87,32.31-56.385,14.269-83.629
						c-18.026-27.243-53.763-34.053-79.656-15.187c-12.546,9.143-20.938,22.874-23.633,38.67
						C840.22,2525.896,842.008,2538.852,847.445,2550.338z"/>
					<path style="opacity:0.56;fill:#FFFFFF;" d="M1061.397,2437.437c2.784,5.882,5.303,11.945,7.54,18.173l0,0
						c0.705,1.96,1.378,3.934,2.023,5.917c3.174,9.781,5.602,19.81,7.249,29.932c0.023,0.138,0.045,0.276,0.068,0.414
						c0.062,0.391,0.124,0.783,0.182,1.177c0.119,0.763,0.23,1.528,0.34,2.292c0.287,2.01-0.717,3.906-2.36,4.763
						c-0.399,0.208-0.838,0.354-1.302,0.426c-2.377,0.368-4.586-1.364-4.946-3.857c-1.83-12.854-4.993-25.588-9.399-37.852
						c-21.862-60.927-71.412-102.608-127.962-115.198c-31.453-7.007-65.074-5.01-97.307,7.688
						c-5.653,2.225-11.156,4.734-16.49,7.512c-35.905,18.685-64.332,49.529-81.073,88.391
						c-19.233,44.639-20.745,94.516-4.259,140.437c34.058,94.838,135.094,143.029,225.269,107.51
						c5.56-2.189,10.994-4.667,16.278-7.419c22.902-11.92,43.055-28.977,58.954-50.022c0.411-0.543,0.915-0.962,1.471-1.25
						c1.461-0.76,3.277-0.62,4.642,0.52c1.881,1.579,2.209,4.446,0.709,6.426c-16.692,22.094-37.849,40.005-61.893,52.519
						c-5.547,2.888-11.249,5.489-17.084,7.789c-94.676,37.292-200.77-13.372-236.491-112.862
						c-17.309-48.211-15.719-100.569,4.471-147.432c17.574-40.799,47.419-73.179,85.111-92.796
						c5.601-2.914,11.378-5.548,17.309-7.886c45.864-18.063,95.719-16.272,140.385,5.045
						C1011.727,2366.355,1042.631,2397.791,1061.397,2437.437z"/>
				</g>
			</g>
			<g>
				<g style="opacity:0.3;">
					
						<linearGradient id="SVGID_00000088097781187490022410000017755069998607127989_" gradientUnits="userSpaceOnUse" x1="526.0054" y1="10414.9863" x2="544.744" y2="10414.9863" gradientTransform="matrix(-0.4445 -0.8958 0.8958 -0.4445 -7542.5566 8227.3662)">
						<stop  offset="0" style="stop-color:#B37CFF"/>
						<stop  offset="1" style="stop-color:#F895E7"/>
					</linearGradient>
					<path style="fill:url(#SVGID_00000088097781187490022410000017755069998607127989_);" d="M1561.563,3109.405
						c1.295,2.737,0.791,6.142-1.452,8.317c-4.184,4.063-8.544,8.049-12.958,11.843c-2.868,2.466-7.099,2.019-9.459-1.001
						c-2.37-3.013-1.938-7.466,0.93-9.932c4.205-3.616,8.361-7.414,12.355-11.29c2.718-2.642,6.971-2.46,9.498,0.403
						C1560.924,3108.255,1561.284,3108.814,1561.563,3109.405z"/>
					
						<linearGradient id="SVGID_00000178911343697252585390000014392886197897002656_" gradientUnits="userSpaceOnUse" x1="517.2747" y1="10216.9746" x2="873.0012" y2="10216.9746" gradientTransform="matrix(-0.4445 -0.8958 0.8958 -0.4445 -7542.5566 8227.3662)">
						<stop  offset="0" style="stop-color:#B37CFF"/>
						<stop  offset="1" style="stop-color:#F895E7"/>
					</linearGradient>
					<path style="fill:url(#SVGID_00000178911343697252585390000014392886197897002656_);" d="M1520.576,3142.398
						c1.518,3.207,0.51,7.157-2.43,9.099c-8.305,5.492-16.975,10.595-25.765,15.168c-1.851,0.963-3.718,1.907-5.6,2.836
						c-3.362,1.653-7.327-0.119-8.951-3.394c-1.583-3.531-0.145-7.732,3.208-9.389c1.799-0.886,3.585-1.788,5.353-2.708
						c8.385-4.362,16.654-9.23,24.575-14.464c3.14-2.076,7.287-1.081,9.273,2.217
						C1520.361,3141.975,1520.475,3142.185,1520.576,3142.398z M1457.459,3173.503c0.142,0.299,0.269,0.615,0.371,0.938
						c1.162,3.708-0.752,7.695-4.277,8.909c-11.308,3.896-22.949,7.088-34.592,9.484c-3.642,0.752-7.177-1.764-7.901-5.569
						c-0.721-3.829,1.641-7.533,5.283-8.284c11.11-2.288,22.212-5.334,32.997-9.047
						C1452.552,3168.829,1455.994,3170.407,1457.459,3173.503z M1389.009,3187.584c0.38,0.803,0.619,1.695,0.687,2.642
						c0.266,3.889-2.526,7.259-6.227,7.529c-11.86,0.857-23.906,0.949-35.795,0.258c-3.712-0.214-6.55-3.534-6.356-7.439
						c0.195-3.89,3.36-6.872,7.063-6.658c11.339,0.657,22.819,0.575,34.131-0.247
						C1385.311,3183.468,1387.832,3185.097,1389.009,3187.584z M1319.314,3183.552c0.62,1.31,0.857,2.83,0.6,4.377
						c-0.652,3.836-4.145,6.388-7.798,5.694c-11.73-2.226-23.427-5.234-34.777-8.946c-3.545-1.163-5.524-5.127-4.433-8.84
						c1.094-3.722,4.856-5.799,8.407-4.639c10.815,3.541,21.978,6.411,33.161,8.532
						C1316.654,3180.143,1318.398,3181.615,1319.314,3183.552z M1252.633,3161.767c0.866,1.829,0.974,4.037,0.115,6.043
						c-1.519,3.55-5.496,5.126-8.884,3.524c-10.852-5.15-21.508-11.048-31.667-17.537c-3.184-2.024-4.194-6.369-2.27-9.7
						c1.924-3.33,6.058-4.387,9.229-2.36c9.696,6.19,19.859,11.818,30.216,16.728
						C1250.845,3159.167,1251.964,3160.356,1252.633,3161.767z M1192.975,3123.662c1.122,2.369,0.922,5.307-0.74,7.519
						c-2.296,3.054-6.521,3.565-9.437,1.148c-9.341-7.761-18.312-16.207-26.653-25.104c-2.606-2.798-2.576-7.253,0.063-9.985
						c2.639-2.732,6.898-2.691,9.503,0.088c7.956,8.485,16.504,16.535,25.41,23.933
						C1191.928,3121.931,1192.546,3122.756,1192.975,3123.662z M1143.976,3071.429c1.404,2.966,0.665,6.649-1.923,8.731
						c-2.944,2.367-7.164,1.775-9.427-1.321c-7.224-9.894-13.951-20.394-20-31.207c-1.832-3.405-0.808-7.696,2.391-9.66
						c3.198-1.969,7.316-0.835,9.201,2.528c5.763,10.319,12.18,20.333,19.069,29.766
						C1143.558,3070.637,1143.786,3071.027,1143.976,3071.429z M1096.717,2973.595c0.172,0.364,0.32,0.754,0.432,1.161
						c2.765,9.88,6.094,19.775,9.895,29.414c0.568,1.463,1.142,2.893,1.733,4.311c1.476,3.583-0.081,7.735-3.486,9.279
						c-3.41,1.554-7.475-0.073-8.845-3.68c-0.623-1.516-1.238-3.033-1.833-4.567c-3.968-10.071-7.458-20.445-10.356-30.806
						c-1.047-3.745,0.988-7.66,4.55-8.751C1091.978,2968.984,1095.291,2970.583,1096.717,2973.595z"/>
				</g>
				<g style="opacity:0.3;">
					
						<linearGradient id="SVGID_00000034087795242964681300000014285331838093501868_" gradientUnits="userSpaceOnUse" x1="683.3325" y1="10557.6025" x2="1093.014" y2="10557.6025" gradientTransform="matrix(-0.4445 -0.8958 0.8958 -0.4445 -7542.5566 8227.3662)">
						<stop  offset="0" style="stop-color:#B37CFF"/>
						<stop  offset="1" style="stop-color:#F895E7"/>
					</linearGradient>
					<path style="fill:url(#SVGID_00000034087795242964681300000014285331838093501868_);" d="M1620.876,2754.619
						c1.635,3.454,0.327,7.653-2.947,9.414c-3.298,1.773-7.354,0.399-9.048-3.073c-5.108-10.452-10.866-20.666-17.116-30.358
						c-2.042-3.231-1.286-7.62,1.79-9.802c3.075-2.181,7.252-1.325,9.337,1.903c6.548,10.169,12.589,20.874,17.944,31.829
						C1620.835,2754.532,1620.863,2754.591,1620.876,2754.619z M1634.729,2787.707c0.108,0.229,0.203,0.46,0.289,0.704
						c4.068,11.532,7.507,23.441,10.228,35.393c0.859,3.796-1.362,7.596-4.972,8.493c-3.615,0.903-7.236-1.471-8.104-5.24
						c-2.594-11.406-5.878-22.768-9.756-33.775c-1.291-3.656,0.486-7.714,3.965-9.059
						C1629.635,2782.964,1633.219,2784.518,1634.729,2787.707z M1582.347,2694.879c1.328,2.805,0.755,6.298-1.594,8.452
						c-2.788,2.556-7.034,2.25-9.48-0.689c-7.368-8.853-15.303-17.31-23.6-25.137c-2.758-2.626-2.996-7.073-0.515-9.969
						c2.474-2.896,6.727-3.131,9.492-0.522c8.695,8.205,17.015,17.074,24.734,26.356
						C1581.775,2693.841,1582.095,2694.347,1582.347,2694.879z M1650.655,2857.897c0.341,0.719,0.57,1.512,0.662,2.358
						c1.311,12.223,1.915,24.653,1.793,36.941c-0.036,3.899-3.078,7.018-6.791,6.971c-3.701-0.053-6.68-3.254-6.649-7.148
						c0.114-11.717-0.463-23.564-1.711-35.22c-0.414-3.874,2.24-7.364,5.928-7.789
						C1646.769,2853.677,1649.433,2855.314,1650.655,2857.897z M1531.237,2646.663c1.06,2.24,0.955,5.001-0.501,7.187
						c-2.126,3.197-6.315,3.968-9.359,1.731c-9.145-6.728-18.776-12.936-28.636-18.451c-3.286-1.836-4.527-6.115-2.786-9.554
						c1.74-3.439,5.811-4.74,9.089-2.904c10.334,5.789,20.436,12.295,30.026,19.345
						C1530.025,2644.721,1530.753,2645.64,1531.237,2646.663z M1470.634,2612.702c0.812,1.715,0.961,3.763,0.258,5.683
						c-1.333,3.635-5.222,5.443-8.686,4.034c-10.436-4.241-21.205-7.856-32.003-10.743c-3.604-0.963-5.785-4.81-4.875-8.583
						c0.906-3.779,4.557-6.059,8.154-5.097c11.325,3.025,22.614,6.812,33.55,11.256
						C1468.663,2609.916,1469.911,2611.176,1470.634,2612.702z M1404.058,2594.947c0.57,1.205,0.823,2.59,0.646,4.026
						c-0.462,3.867-3.826,6.599-7.51,6.102c-11.088-1.504-22.361-2.3-33.502-2.368c-3.704-0.028-6.709-3.205-6.693-7.102
						c0.014-3.899,3.031-7.04,6.747-7.017c11.68,0.076,23.504,0.908,35.136,2.479
						C1401.2,2591.383,1403.09,2592.902,1404.058,2594.947z"/>
					
						<linearGradient id="SVGID_00000181056014072038263140000012553737834850172084_" gradientUnits="userSpaceOnUse" x1="637.5008" y1="10576.9023" x2="665.8765" y2="10576.9023" gradientTransform="matrix(-0.4445 -0.8958 0.8958 -0.4445 -7542.5566 8227.3662)">
						<stop  offset="0" style="stop-color:#B37CFF"/>
						<stop  offset="1" style="stop-color:#F895E7"/>
					</linearGradient>
					<path style="fill:url(#SVGID_00000181056014072038263140000012553737834850172084_);" d="M1649.931,2930.33
						c0.578,1.22,0.826,2.627,0.642,4.079c-0.762,5.987-1.698,11.975-2.776,17.803c-0.71,3.823-4.238,6.317-7.882,5.564
						c-3.634-0.762-6.017-4.466-5.316-8.292c1.031-5.557,1.922-11.271,2.652-16.984c0.492-3.863,3.877-6.567,7.553-6.04
						C1647.099,2926.792,1648.971,2928.301,1649.931,2930.33z"/>
				</g>
				<g>
					
						<linearGradient id="SVGID_00000144314992824571083530000008282030211057174661_" gradientUnits="userSpaceOnUse" x1="1462.5052" y1="2552.1553" x2="1225.5594" y2="3348.6953">
						<stop  offset="0" style="stop-color:#FDF53F"/>
						<stop  offset="1" style="stop-color:#D93C65"/>
					</linearGradient>
					<path style="fill:url(#SVGID_00000144314992824571083530000008282030211057174661_);" d="M1569.714,2965.509
						c0.598-1.387,0.291-3.024-0.765-4.073l-30.121-29.938c3.738-19.924,4.476-40.625,1.88-61.361l31.847-27.692
						c1.117-0.971,1.523-2.581,1.01-4.009l-17.543-48.865c-0.513-1.428-1.831-2.359-3.282-2.319l-41.377,1.149
						c-11.092-17.39-24.669-32.452-40.014-44.86l3.825-43.308c0.133-1.518-0.664-2.961-1.988-3.592l-45.273-21.607
						c-1.324-0.631-2.88-0.313-3.877,0.794l-28.432,31.564c-18.979-3.974-38.691-4.798-58.427-2.121l-26.442-33.516
						c-0.928-1.176-2.461-1.605-3.819-1.071l-46.484,18.309c-1.359,0.535-2.242,1.917-2.2,3.441l1.193,43.461
						c-16.531,11.607-30.839,25.832-42.615,41.919l-41.245-4.12c-1.445-0.144-2.817,0.69-3.414,2.078l-20.464,47.5
						c-0.598,1.388-0.29,3.023,0.765,4.073l30.121,29.938c-3.739,19.924-4.476,40.625-1.88,61.361l-31.848,27.693
						c-1.117,0.971-1.523,2.58-1.01,4.009l17.543,48.866c0.512,1.428,1.83,2.359,3.282,2.319l41.376-1.149
						c11.091,17.39,24.669,32.453,40.015,44.861l-3.824,43.307c-0.135,1.519,0.664,2.961,1.987,3.592l45.273,21.607
						c1.323,0.631,2.88,0.313,3.877-0.794l28.432-31.563c18.979,3.974,38.691,4.798,58.427,2.12l26.442,33.516
						c0.926,1.175,2.461,1.605,3.82,1.069l46.483-18.308c1.359-0.536,2.242-1.917,2.2-3.442l-1.193-43.461
						c16.53-11.608,30.839-25.832,42.616-41.919l41.244,4.12c1.446,0.144,2.817-0.69,3.416-2.078L1569.714,2965.509z"/>
					<path style="opacity:0.56;fill:#FFFFFF;" d="M1406.267,2870.81c4.831,10.206,6.42,21.716,4.475,33.123
						c-2.395,14.032-9.852,26.232-20.998,34.352c-22.997,16.762-54.742,10.712-70.765-13.488
						c-15.997-24.265-10.327-57.538,12.677-74.299c11.145-8.123,24.645-11.192,38.007-8.642
						c13.368,2.546,25.005,10.407,32.761,22.137C1403.873,2866.184,1405.157,2868.464,1406.267,2870.81z M1327.21,2911.789
						c0.806,1.703,1.738,3.362,2.799,4.97c11.786,17.8,35.135,22.25,52.058,9.919c8.194-5.972,13.685-14.947,15.442-25.266
						c1.761-10.326-0.421-20.753-6.117-29.385l0,0c-5.707-8.623-14.267-14.407-24.095-16.282c-9.836-1.875-19.765,0.384-27.965,6.36
						C1323.94,2873.319,1319.088,2894.627,1327.21,2911.789z"/>
					<path style="opacity:0.56;fill:#FFFFFF;" d="M1473.009,2834.955c1.895,4.004,3.61,8.139,5.147,12.407
						c3.045,8.476,5.274,17.284,6.625,26.202c0.058,0.401,0.116,0.802,0.174,1.204c0.444,3.104-1.107,6.031-3.643,7.355
						c-0.617,0.321-1.294,0.546-2.01,0.657c-3.67,0.569-7.077-2.109-7.638-5.956c-1.186-8.339-3.235-16.581-6.083-24.502
						l-0.001-0.003c-0.155-0.435-0.318-0.87-0.477-1.3c-6.902-18.682-17.972-34.86-32.152-47.491
						c-7.698-6.856-16.32-12.665-25.703-17.251c-0.076-0.038-0.152-0.075-0.229-0.112c-0.237-0.112-0.467-0.227-0.701-0.336
						c-27.545-13.143-58.289-14.25-86.569-3.111c-3.661,1.439-7.22,3.063-10.675,4.861c-23.243,12.096-41.646,32.066-52.488,57.226
						c-12.448,28.899-13.423,61.185-2.75,90.91c10.677,29.704,31.721,53.341,59.262,66.49c27.544,13.143,58.289,14.251,86.569,3.111
						c3.599-1.415,7.116-3.021,10.535-4.8c14.829-7.719,27.873-18.759,38.164-32.383c0.635-0.839,1.413-1.486,2.272-1.929
						c2.256-1.174,5.061-0.958,7.168,0.802c2.903,2.436,3.403,6.866,1.094,9.923c-11.516,15.243-26.113,27.599-42.697,36.235
						c-3.831,1.993-7.763,3.789-11.787,5.374c-31.644,12.463-66.038,11.225-96.857-3.483c-30.812-14.708-54.375-41.097-66.3-74.383
						c-11.943-33.26-10.85-69.381,3.084-101.714c12.123-28.148,32.714-50.488,58.719-64.021c3.86-2.008,7.847-3.828,11.938-5.44
						C1376.257,2745.372,1444.439,2774.596,1473.009,2834.955z"/>
				</g>
			</g>
		</g>
	</g>
</g>
</svg>
